<?xml version="1.0" encoding="UTF-8"?>
<svg id="_ëîé_1" data-name="‘ëîé_1" xmlns="http://www.w3.org/2000/svg" viewBox="0 0 700 700">
  <defs>
    <style>
      .cls-1 {
        fill: #352c19;
      }

      .cls-2 {
        fill: #a00018;
      }
    </style>
  </defs>
  <g>
    <g>
      <path class="cls-1" d="M379.17,396.43c-1.9,0-3.81-.72-5.26-2.16l-32.01-31.56c-2.95-2.91-2.99-7.66-.08-10.61,2.91-2.97,7.68-2.97,10.61-.08l26.71,26.34,20.08-20.08-26.63-26.26c-2.95-2.91-2.99-7.66-.08-10.61,2.91-2.97,7.68-2.97,10.61-.08l32.01,31.56c1.43,1.41,2.23,3.32,2.24,5.31,0,2-.78,3.92-2.2,5.33l-30.68,30.68c-1.46,1.46-3.38,2.2-5.3,2.2Z"/>
      <g>
        <path class="cls-1" d="M396.15,555.27c-1.92,0-3.84-.73-5.3-2.2-2.93-2.93-2.93-7.68,0-10.61l35.45-35.44c.88-.88,1.97-1.53,3.16-1.88,5.95-1.77,11.42-5.03,15.81-9.42l74.06-74.06c1.14-1.14,1.78-2.67,1.78-4.29s-.62-3.12-1.77-4.26l-3.84-3.86c-2.34-2.32-6.17-2.33-8.55.03l-9.58,9.58c-2.93,2.93-7.68,2.93-10.61,0-2.93-2.93-2.93-7.68,0-10.61l9.58-9.58c8.2-8.21,21.55-8.23,29.78-.03l3.84,3.86c3.96,3.96,6.15,9.25,6.15,14.87s-2.2,10.91-6.17,14.88l-74.06,74.06c-5.69,5.69-12.67,10.02-20.26,12.6l-34.16,34.15c-1.46,1.46-3.39,2.2-5.3,2.2Z"/>
        <path class="cls-1" d="M311.78,470.9c-1.92,0-3.84-.73-5.3-2.2-2.93-2.93-2.93-7.68,0-10.61l20.36-20.36c-7.47-17.67-3.71-34.65,11.04-49.39l18.78-18.79c2.93-2.93,7.68-2.93,10.61,0,2.93,2.93,2.93,7.68,0,10.61l-18.78,18.79c-11.46,11.46-13.37,23.14-6,36.76,1.58,2.92,1.05,6.53-1.29,8.88l-24.12,24.12c-1.46,1.46-3.38,2.2-5.3,2.2Z"/>
        <path class="cls-1" d="M492.04,421.04c-1.92,0-3.84-.73-5.3-2.2-2.93-2.93-2.93-7.68,0-10.61l9.58-9.58c2.36-2.36,2.37-6.21,0-8.56l-3.82-3.82c-1.15-1.15-2.67-1.78-4.28-1.78h0c-1.62,0-3.14.63-4.29,1.78l-9.59,9.59c-2.93,2.93-7.68,2.93-10.61,0-2.93-2.93-2.93-7.68,0-10.61l9.59-9.59c3.97-3.97,9.26-6.17,14.88-6.17h0c5.62,0,10.91,2.19,14.88,6.16l3.82,3.82c8.21,8.22,8.19,21.58,0,29.79l-9.58,9.58c-1.46,1.46-3.38,2.2-5.3,2.2Z"/>
        <path class="cls-1" d="M469.02,398.03c-1.92,0-3.84-.73-5.3-2.2-2.93-2.93-2.93-7.68,0-10.61l9.59-9.59c1.14-1.14,1.78-2.67,1.78-4.29s-.62-3.12-1.77-4.26l-3.84-3.86c-2.34-2.33-6.17-2.34-8.54.03l-9.6,9.59c-2.93,2.93-7.68,2.93-10.61,0-2.93-2.93-2.93-7.68,0-10.61l9.59-9.59c8.18-8.21,21.52-8.23,29.77-.03l3.84,3.86c3.96,3.96,6.15,9.25,6.15,14.87s-2.2,10.91-6.17,14.88l-9.59,9.59c-1.46,1.46-3.38,2.2-5.3,2.2Z"/>
        <path class="cls-1" d="M367.72,407.22c-1.92,0-3.85-.73-5.31-2.2-2.92-2.94-2.92-7.69,0-10.62l64.89-64.78c8.22-8.2,21.57-8.2,29.78,0l3.83,3.83c8.19,8.21,8.19,21.56,0,29.78l-9.6,9.59c-2.93,2.93-7.68,2.93-10.61,0s-2.93-7.68,0-10.61l9.59-9.59c2.35-2.36,2.36-6.21,0-8.56l-3.82-3.83c-2.36-2.34-6.2-2.35-8.56,0l-64.89,64.79c-1.46,1.46-3.39,2.19-5.3,2.19Z"/>
      </g>
    </g>
    <path class="cls-1" d="M283.77,384.49c-66.1,0-119.88-53.78-119.88-119.88s53.78-119.88,119.88-119.88,119.88,53.78,119.88,119.88-53.78,119.88-119.88,119.88ZM283.77,159.73c-57.83,0-104.88,47.05-104.88,104.88s47.05,104.88,104.88,104.88,104.88-47.05,104.88-104.88-47.05-104.88-104.88-104.88Z"/>
  </g>
  <g>
    <path class="cls-2" d="M216.99,267.45c-1.92,0-3.84-.73-5.3-2.2-2.93-2.93-2.93-7.68,0-10.61l66.79-66.79c1.41-1.41,3.31-2.2,5.3-2.2h0c1.99,0,3.9.79,5.3,2.2l66.76,66.77c2.93,2.93,2.93,7.68,0,10.61s-7.68,2.93-10.61,0l-61.46-61.46-61.48,61.48c-1.46,1.46-3.38,2.2-5.3,2.2Z"/>
    <path class="cls-2" d="M230.35,327.12c-4.14,0-7.5-3.36-7.5-7.5v-72.01c0-4.14,3.36-7.5,7.5-7.5s7.5,3.36,7.5,7.5v72.01c0,4.14-3.36,7.5-7.5,7.5Z"/>
    <path class="cls-2" d="M337.19,327.12c-4.14,0-7.5-3.36-7.5-7.5v-72.01c0-4.14,3.36-7.5,7.5-7.5s7.5,3.36,7.5,7.5v72.01c0,4.14-3.36,7.5-7.5,7.5Z"/>
    <path class="cls-2" d="M300.46,327.12c-4.14,0-7.5-3.36-7.5-7.5v-25.89h-18.39v25.89c0,4.14-3.36,7.5-7.5,7.5s-7.5-3.36-7.5-7.5v-33.39c0-4.14,3.36-7.5,7.5-7.5h33.39c4.14,0,7.5,3.36,7.5,7.5v33.39c0,4.14-3.36,7.5-7.5,7.5Z"/>
  </g>
</svg>